<svg height="512pt" viewBox="0 0 512 512" width="512pt" xmlns="http://www.w3.org/2000/svg"><path d="m510.957031 303.515625c-5.800781-35.640625-38.988281-62.515625-77.195312-62.515625h-21.296875c-14.929688-15.3125-62.167969-58.933594-111.496094-54.035156v-20.964844h75v-90h-75v-76h-90v76h-75v90h75v20.964844c-49.324219-4.894532-96.5625 38.722656-111.492188 54.035156h-21.296874c-38.210938 0-71.394532 26.875-77.191407 62.515625-6.796875 41.785156 22.308594 79.960937 62.859375 86.507813 7.6875 18.160156 30.039063 30.976562 57.121094 30.976562 33.648438 0 60-19.765625 60-45s-26.351562-45-60-45c-25.90625 0-47.476562 11.726562-56.03125 28.636719-21.851562-5.410157-38.351562-26.632813-34.339844-51.304688 3.460938-21.28125 23.917969-37.332031 47.582032-37.332031h14.742187c7.425781 26.027344 33.113281 29.773438 50.695313 32.679688 19.941406 3.296874 32.515624 6.222656 38.945312 19.042968 9.1875 18.324219 9.53125 31.777344 9.933594 47.351563.257812 10.132812.527344 20.609375 3.074218 32.949219 7.675782 37.183593 15.398438 41.851562 15.398438 75.921874v33.054688h90l-.199219-15c0-62.449219 5.367188-44.398438 15.601563-93.976562 2.546875-12.339844 2.816406-22.816407 3.074218-32.945313.398438-15.578125.742188-29.027344 9.933594-47.355469 6.449219-12.859375 19.019532-15.773437 38.960938-19.046875 16.914062-2.777343 43.195312-6.355469 50.683594-32.675781h14.734374c23.667969 0 44.121094 16.050781 47.585938 37.332031 3.996094 24.574219-12.394531 45.871094-34.339844 51.304688-8.554687-16.910157-30.125-28.636719-56.035156-28.636719-33.644531 0-60 19.765625-60 45s26.355469 45 60 45c27.085938 0 49.4375-12.816406 57.125-30.976562 40.574219-6.550782 69.652344-44.75 62.863281-86.507813zm-389.988281 57.484375c18.316406 0 30 8.882812 30 15s-11.683594 15-30 15c-18.3125 0-30-8.882812-30-15s11.6875-15 30-15zm45-225v-30h75v-76h30v76h75v30h-75v75h-30v-75zm197.511719 138.070312c-19.898438 3.269532-47.144531 7.742188-60.917969 35.207032-12.191406 24.308594-12.679688 43.289062-13.105469 60.03125-.234375 9.222656-.460937 17.933594-2.464843 27.652344-8.636719 41.839843-14.96875 35.046874-15.898438 85.039062h-30.125c0-43.734375-8.515625-48.695312-16.019531-85.039062-2.003907-9.722657-2.230469-18.429688-2.464844-27.652344-.429687-16.746094-.914063-35.722656-13.105469-60.035156-13.746094-27.40625-40.980468-31.90625-60.871094-35.191407-19.921874-3.292969-25.707031-5.363281-27.128906-12.632812 17.476563-17.980469 56.417969-49.464844 89.589844-44.195313v23.746094h90v-23.742188c33.183594-5.273437 72.132812 26.226563 89.597656 44.195313-1.417968 7.285156-7.191406 9.351563-27.085937 12.617187zm27.488281 116.929688c-18.3125 0-30-8.882812-30-15s11.6875-15 30-15c18.316406 0 30 8.882812 30 15s-11.683594 15-30 15zm0 0"/></svg>