<?xml version="1.0" encoding="iso-8859-1"?>
<!-- Generator: Adobe Illustrator 19.0.0, SVG Export Plug-In . SVG Version: 6.00 Build 0)  -->
<svg version="1.1" id="Capa_1" xmlns="http://www.w3.org/2000/svg" xmlns:xlink="http://www.w3.org/1999/xlink" x="0px" y="0px"
	 viewBox="0 0 512.013 512.013" style="enable-background:new 0 0 512.013 512.013;" xml:space="preserve">
<g>
	<g>
		<path d="M448.013,341.34v30.827c-1.525,6.368-11.829,43.84-42.667,43.84c-5.891,0-10.667,4.776-10.667,10.667v64H192.013v-74.667
			c0-33.749-20.928-42.667-32-42.667h-64c-0.866,0.056-1.735,0.056-2.602,0c-11.064-0.719-19.45-10.27-18.732-21.333v-39.765
			c0.001-3.055-1.308-5.964-3.595-7.989c-10.698-9.857-24.539-15.612-39.072-16.245c-0.047,0.006-0.095,0.011-0.142,0.016
			c-5.143,0.545-9.755-3.182-10.301-8.326l51.776-93.867c0.873-1.577,1.331-3.35,1.333-5.152v-20.672
			C74.768,83.46,136.8,21.428,213.347,21.34V0.007c-88.324,0.1-159.9,71.676-160,160v17.931l-52,94.251
			c-0.873,1.577-1.331,3.35-1.333,5.152c-0.018,0.606-0.018,1.213,0,1.819c0.502,17.171,14.829,30.684,32,30.181
			c7.758,0.431,15.2,3.218,21.333,7.989v34.677c-0.024,0.815-0.024,1.631,0,2.447c0.676,22.888,19.778,40.896,42.667,40.22h63.691
			c1.835,0.117,10.976,1.707,10.976,21.333v85.333c0,5.891,4.776,10.667,10.667,10.667h224v0c5.891,0,10.667-4.776,10.667-10.667
			v-64.939c33.333-6.304,49.237-41.483,53.12-60.928c0.148-0.701,0.22-1.417,0.213-2.133v-32H448.013z"/>
	</g>
</g>
<g>
	<g>
		<path d="M341.347,0.007c-94.257,0-170.667,76.41-170.667,170.667h21.333c0-82.475,66.859-149.333,149.333-149.333
			S490.68,88.199,490.68,170.673s-66.859,149.333-149.333,149.333v21.333c94.257,0,170.667-76.41,170.667-170.667
			S435.603,0.007,341.347,0.007z"/>
	</g>
</g>
<g>
	<g>
		<path d="M330.68,149.34c-17.673,0-32,14.327-32,32c0,17.673,14.327,32,32,32c17.673,0,32-14.327,32-32
			C362.68,163.667,348.353,149.34,330.68,149.34z M330.68,192.007c-5.891,0-10.667-4.776-10.667-10.667
			c0-5.891,4.776-10.667,10.667-10.667c5.891,0,10.667,4.776,10.667,10.667C341.347,187.231,336.571,192.007,330.68,192.007z"/>
	</g>
</g>
<g>
	<g>
		<path d="M373.347,74.673c-17.673,0-32,14.327-32,32c0,17.673,14.327,32,32,32s32-14.327,32-32
			C405.347,89,391.02,74.673,373.347,74.673z M373.347,117.34c-5.891,0-10.667-4.776-10.667-10.667s4.776-10.667,10.667-10.667
			c5.891,0,10.667,4.776,10.667,10.667S379.238,117.34,373.347,117.34z"/>
	</g>
</g>
<g>
	<g>
		<path d="M416.013,149.34c-17.673,0-32,14.327-32,32c0,17.673,14.327,32,32,32s32-14.327,32-32
			C448.013,163.667,433.686,149.34,416.013,149.34z M416.013,192.007c-5.891,0-10.667-4.776-10.667-10.667
			c0-5.891,4.776-10.667,10.667-10.667c5.891,0,10.667,4.776,10.667,10.667C426.68,187.231,421.904,192.007,416.013,192.007z"/>
	</g>
</g>
<g>
	<g>
		
			<rect x="384.017" y="124.772" transform="matrix(0.832 -0.5547 0.5547 0.832 -13.5921 243.1169)" width="21.333" height="38.464"/>
	</g>
</g>
<g>
	<g>
		<rect x="352.013" y="170.673" width="42.667" height="21.333"/>
	</g>
</g>
<g>
	<g>
		
			<rect x="332.779" y="133.338" transform="matrix(0.5547 -0.8321 0.8321 0.5547 36.9313 357.0158)" width="38.464" height="21.333"/>
	</g>
</g>
<g>
	<g>
		<path d="M192.013,256.007c-17.673,0-32,14.327-32,32s14.327,32,32,32s32-14.327,32-32S209.686,256.007,192.013,256.007z
			 M192.013,298.673c-5.891,0-10.667-4.776-10.667-10.667s4.776-10.667,10.667-10.667s10.667,4.776,10.667,10.667
			S197.904,298.673,192.013,298.673z"/>
	</g>
</g>
<g>
	<g>
		<path d="M234.68,181.34c-17.673,0-32,14.327-32,32c0,17.673,14.327,32,32,32c17.673,0,32-14.327,32-32
			C266.68,195.667,252.353,181.34,234.68,181.34z M234.68,224.007c-5.891,0-10.667-4.776-10.667-10.667
			c0-5.891,4.776-10.667,10.667-10.667c5.891,0,10.667,4.776,10.667,10.667C245.347,219.231,240.571,224.007,234.68,224.007z"/>
	</g>
</g>
<g>
	<g>
		<path d="M277.347,256.007c-17.673,0-32,14.327-32,32s14.327,32,32,32c17.673,0,32-14.327,32-32S295.02,256.007,277.347,256.007z
			 M277.347,298.673c-5.891,0-10.667-4.776-10.667-10.667s4.776-10.667,10.667-10.667c5.891,0,10.667,4.776,10.667,10.667
			S283.238,298.673,277.347,298.673z"/>
	</g>
</g>
<g>
	<g>
		<rect x="245.29" y="231.445" transform="matrix(0.832 -0.5547 0.5547 0.832 -96.0631 184.0807)" width="21.333" height="38.464"/>
	</g>
</g>
<g>
	<g>
		<rect x="213.347" y="277.34" width="42.667" height="21.333"/>
	</g>
</g>
<g>
	<g>
		
			<rect x="194.117" y="240.054" transform="matrix(0.5547 -0.8321 0.8321 0.5547 -113.6082 289.1628)" width="38.464" height="21.333"/>
	</g>
</g>
<g>
	<g>
		<rect x="330.68" y="256.007" width="21.333" height="21.333"/>
	</g>
</g>
<g>
	<g>
		<rect x="352.013" y="234.673" width="21.333" height="21.333"/>
	</g>
</g>
<g>
	<g>
		<rect x="288.013" y="64.007" width="21.333" height="21.333"/>
	</g>
</g>
<g>
	<g>
		<rect x="288.013" y="106.673" width="21.333" height="21.333"/>
	</g>
</g>
<g>
	<g>
		<rect x="245.347" y="128.007" width="21.333" height="21.333"/>
	</g>
</g>
<g>
	<g>
		<rect x="405.347" y="245.34" width="21.333" height="21.333"/>
	</g>
</g>
<g>
</g>
<g>
</g>
<g>
</g>
<g>
</g>
<g>
</g>
<g>
</g>
<g>
</g>
<g>
</g>
<g>
</g>
<g>
</g>
<g>
</g>
<g>
</g>
<g>
</g>
<g>
</g>
<g>
</g>
</svg>
