<svg id="Capa_1" enable-background="new 0 0 512 512" height="512" viewBox="0 0 512 512" width="512" xmlns="http://www.w3.org/2000/svg"><path d="m512 186.65h-26.464c.909-6.653 1.357-13.411 1.312-20.233-.247-37.233-14.918-72.408-41.31-99.044-26.396-26.639-61.435-41.628-98.663-42.205-33.334-.514-65.156 10.391-90.875 30.959-25.719-20.566-57.47-31.472-90.875-30.959-37.229.577-72.268 15.566-98.663 42.205-26.392 26.636-41.063 61.811-41.31 99.044-.045 6.822.403 13.58 1.312 20.233h-26.464v30h33.969c9.119 24.682 25.005 46.635 46.271 63.133v39.516c0 63.976 28.466 123.82 78.098 164.188l4.135 3.363h61.06v-115.312c0-17.904 14.565-32.469 32.469-32.469s32.469 14.565 32.469 32.469v115.312h61.06l4.135-3.363c49.632-40.368 78.098-100.212 78.098-164.188v-39.516c21.265-16.497 37.152-38.45 46.271-63.133h33.965zm-456.848-20.035c.4-60.516 49.943-110.513 110.438-111.452.6-.009 1.195-.014 1.793-.014 29.367 0 57.066 11.224 78.167 31.716l10.45 10.15 10.45-10.149c21.531-20.91 49.884-32.177 79.96-31.703 60.494.938 110.037 50.936 110.438 111.452.045 6.78-.529 13.48-1.671 20.035h-81.411v-17.841c0-25.452-20.707-46.159-46.159-46.159h-143.213c-25.452 0-46.159 20.707-46.159 46.159v17.841h-81.412c-1.142-6.555-1.716-13.255-1.671-20.035zm113.082 50.035h38.453v34h-22.294c-8.91 0-16.159-7.249-16.159-16.16zm107.079-64v34h-38.625v-34zm-68.625 34h-38.453v-17.841c0-8.91 7.249-16.159 16.159-16.159h22.294zm30 30h38.625v34h-38.625zm68.625 0h38.453v17.84c0 8.911-7.249 16.16-16.159 16.16h-22.294zm0-30v-34h22.294c8.91 0 16.159 7.249 16.159 16.159v17.841zm102.932 73.181-6.484 4.472v54.996c0 53.158-22.897 102.991-63.01 137.551h-20.282v-85.312c0-34.446-28.023-62.469-62.469-62.469s-62.469 28.023-62.469 62.469v85.312h-20.282c-40.112-34.561-63.01-84.394-63.01-137.551v-54.996l-6.484-4.472c-16.162-11.146-28.846-26.093-37.201-43.182h71.681v17.84c0 25.453 20.707 46.16 46.159 46.16h143.213c25.452 0 46.159-20.707 46.159-46.16v-17.84h71.681c-8.355 17.089-21.04 32.037-37.202 43.182z"/></svg>