<?xml version="1.0" encoding="iso-8859-1"?>
<!-- Generator: Adobe Illustrator 19.0.0, SVG Export Plug-In . SVG Version: 6.00 Build 0)  -->
<svg version="1.1" id="Layer_1" xmlns="http://www.w3.org/2000/svg" xmlns:xlink="http://www.w3.org/1999/xlink" x="0px" y="0px"
	 viewBox="0 0 512 512" style="enable-background:new 0 0 512 512;" xml:space="preserve">
<g>
	<g>
		<path d="M462.25,105.738v-0.034c0-21.753-13.951-40.311-33.391-47.195V16.696c0-9.22-7.475-16.696-16.696-16.696H245.207
			c-9.22,0-16.696,7.475-16.696,16.696v41.817c-19.435,6.89-33.391,25.459-33.391,47.226c0,21.768,13.956,40.336,33.391,47.226
			c0,7.94,0,63.494,0,72.505c-19.435,6.89-33.391,25.459-33.391,47.226c0,21.768,13.956,40.336,33.391,47.226
			c0,13.811,0,47.497,0,61.372c-19.435,6.89-33.391,25.459-33.391,47.226c0,21.768,13.956,40.336,33.391,47.226v19.556
			c0,9.22,7.475,16.696,16.696,16.696h166.957c9.22,0,16.696-7.475,16.696-16.696v-19.547c19.434-6.882,33.391-25.448,33.391-47.235
			c0-21.768-13.956-40.336-33.391-47.226c0-14.084,0-47.175,0-61.364c19.434-6.882,33.391-25.448,33.391-47.235
			c0-21.768-13.956-40.336-33.391-47.226c0-9.009,0-64.553,0-72.504C448.292,146.075,462.25,127.506,462.25,105.738z
			 M412.163,445.217c-9.22,0-16.696,7.475-16.696,16.696v16.696H261.902v-16.696c0-9.22-7.475-16.696-16.696-16.696
			c-9.206,0-16.696-7.49-16.696-16.696s7.49-16.696,16.696-16.696c9.22,0,16.696-7.475,16.696-16.696v-38.957h133.565v38.957
			c0,9.22,7.479,16.696,16.699,16.696c9.205,0,16.692,7.49,16.692,16.73C428.859,437.743,421.384,445.217,412.163,445.217z
			 M412.163,289.391c-9.22,0-16.696,7.475-16.696,16.696v16.696H261.902v-16.696c0-9.22-7.475-16.696-16.696-16.696
			c-9.206,0-16.696-7.49-16.696-16.696c0-9.206,7.49-16.696,16.696-16.696c9.22,0,16.696-7.475,16.696-16.696v-50.087h133.565
			v50.087c0,9.22,7.479,16.696,16.699,16.696c9.205,0,16.692,7.49,16.692,16.73C428.859,281.917,421.384,289.391,412.163,289.391z
			 M412.163,122.435c-9.22,0-16.696,7.475-16.696,16.696v16.696H261.902V139.13c0-9.22-7.475-16.696-16.696-16.696
			c-9.206,0-16.696-7.49-16.696-16.696s7.49-16.696,16.696-16.696c9.22,0,16.696-7.475,16.696-16.696V33.391h133.565v38.957
			c0,9.22,7.508,16.696,16.728,16.696c9.188,0,16.663,7.474,16.663,16.661v0.034C428.859,114.945,421.37,122.435,412.163,122.435z"
			/>
	</g>
</g>
<g>
	<g>
		<path d="M311.989,66.783c-9.22,0-16.696,7.475-16.696,16.696v22.261c0,9.22,7.475,16.696,16.696,16.696
			s16.696-7.475,16.696-16.696V83.478C328.685,74.258,321.21,66.783,311.989,66.783z"/>
	</g>
</g>
<g>
	<g>
		<path d="M311.989,222.609c-9.22,0-16.696,7.475-16.696,16.696v33.391c0,9.22,7.475,16.696,16.696,16.696
			s16.696-7.475,16.696-16.696v-33.391C328.685,230.084,321.21,222.609,311.989,222.609z"/>
	</g>
</g>
<g>
	<g>
		<path d="M311.989,389.565c-9.22,0-16.696,7.475-16.696,16.696v22.261c0,9.22,7.475,16.696,16.696,16.696
			s16.696-7.475,16.696-16.696v-22.261C328.685,397.04,321.21,389.565,311.989,389.565z"/>
	</g>
</g>
<g>
	<g>
		<path d="M168.645,144.696h-17.03V128c0-9.22-7.141-16.696-16.362-16.696S118.558,118.78,118.558,128v33.391
			c0,9.22,7.475,16.696,16.696,16.696h16.696v16.696c0,9.22,7.475,16.696,16.696,16.696s16.362-7.475,16.362-16.696v-33.391
			C185.007,152.171,177.865,144.696,168.645,144.696z"/>
	</g>
</g>
<g>
	<g>
		<path d="M149.085,228.175l-23.611-23.611c-6.521-6.52-17.093-6.52-23.612-0.001l-11.806,11.806l-11.805-11.805
			c-6.519-6.519-17.091-6.519-23.611,0s-6.52,17.091,0,23.611l23.611,23.611c6.519,6.52,17.09,6.52,23.611,0l11.806-11.805
			l11.806,11.805c6.52,6.52,17.091,6.52,23.611,0C155.604,245.267,155.604,234.695,149.085,228.175z"/>
	</g>
</g>
<g>
	<g>
		<path d="M147.058,383.326l11.806-11.806c6.519-6.519,6.519-17.091,0-23.611c-6.519-6.519-17.091-6.519-23.611,0l-23.611,23.612
			c-6.515,6.516-6.519,17.092,0,23.611l11.805,11.805l-11.805,11.805c-6.521,6.519-6.521,17.09-0.001,23.611
			c6.519,6.519,17.09,6.521,23.611,0l23.611-23.611c6.517-6.516,6.519-17.093,0-23.611L147.058,383.326z"/>
	</g>
</g>
<g>
	<g>
		<path d="M135.253,278.261h-33.391c-9.22,0-16.696,7.475-16.696,16.696v16.696H68.471c-9.22,0-16.696,7.475-16.696,16.696
			s7.475,16.696,16.696,16.696h33.391c9.22,0,16.696-7.475,16.696-16.696v-16.696h16.696c9.22,0,16.696-7.475,16.696-16.696
			S144.474,278.261,135.253,278.261z"/>
	</g>
</g>
<g>
</g>
<g>
</g>
<g>
</g>
<g>
</g>
<g>
</g>
<g>
</g>
<g>
</g>
<g>
</g>
<g>
</g>
<g>
</g>
<g>
</g>
<g>
</g>
<g>
</g>
<g>
</g>
<g>
</g>
</svg>
