<svg id="Capa_1" enable-background="new 0 0 512 512" height="512" viewBox="0 0 512 512" width="512" xmlns="http://www.w3.org/2000/svg"><path d="m227 271c-5.358 0-10.31 2.858-12.99 7.499l-25.998 45.02c-3.933 6.813-6.012 14.586-6.012 22.481 0 24.813 20.187 45 45 45s45-20.187 45-45c0-7.895-2.079-15.668-6.013-22.481l-25.997-45.02c-2.68-4.641-7.632-7.499-12.99-7.499zm15 75c0 8.271-6.729 15-15 15s-15-6.729-15-15c0-2.673.67-5.19 1.993-7.48l13.007-22.524 13.007 22.524c1.323 2.29 1.993 4.807 1.993 7.48z"/><path d="m15 241h185.624c22.783 0 45.228-5.012 65.715-14.448l62.78 62.78c-7.967 16.723-5.045 37.381 8.782 51.208l106.066 106.066c5.857 5.858 15.355 5.859 21.213 0l42.426-42.426c5.858-5.858 5.858-15.355 0-21.213l-106.065-106.067c-13.828-13.827-34.485-16.748-51.209-8.781l-57.253-57.253c31.894-23.227 53.794-57.745 61.453-96.041 5.575-27.874-15.759-53.825-44.126-53.825h-295.406c-8.284 0-15 6.716-15 15v150c0 8.284 6.716 15 15 15zm365.328 57.114 95.459 95.46-21.213 21.213-95.459-95.459c-5.848-5.848-5.848-15.362-.003-21.211.001-.001.002-.001.003-.002l.002-.002c5.848-5.846 15.363-5.847 21.211.001zm-198.328-207.124h87.42c-6.192 17.458-22.865 30.01-42.42 30.01h-45zm-152 .01h122v45c0 8.284 6.716 15 15 15h60c36.219 0 66.522-25.808 73.491-60h9.915c9.493 0 16.56 8.687 14.709 17.941-11.827 59.137-64.183 102.059-124.491 102.059h-170.624z"/></svg>