<svg id="Layer_1" enable-background="new 0 0 510.458 510.458" height="512" viewBox="0 0 510.458 510.458" width="512" xmlns="http://www.w3.org/2000/svg"><g><path d="m477.257 343.873c6.62 0 11.651-6.577 10.357-13.651l-37.968-207.505c-2.307-12.607-12.478-21.674-24.359-21.674-16.946 0-27.685 0-42.953 0-4.136 0-8.06 1.127-11.529 3.103l13.52 4.165-49.819-4.682-72.376-31.383c-9.782-4.241-21.153.25-25.395 10.033s.25 21.153 10.033 25.396l75.193 32.605c1.867.809 3.849 1.318 5.875 1.509l52.875 4.969-27.702 3.099-2.525 13.797-6.824 6.538-62.955 30.296v42.855l60.527-29.128-21.226 116.008c-1.297 7.09 3.724 13.651 10.357 13.651h15.345l-8.353 31.532c-.456 1.722-.724 3.488-.799 5.267l-4.434 104.063c-.597 14.005 10.586 25.72 24.665 25.72 13.141-.001 24.065-10.366 24.629-23.62l4.32-101.386 11.014-41.576h10.711v45.22c0 1.914.222 3.821.663 5.682l22.888 96.687c3.129 13.217 16.388 21.47 29.69 18.324 13.258-3.138 21.462-16.431 18.324-29.69l-22.225-93.883v-42.34c7.967-.001 14.956-.001 20.456-.001z"/><ellipse cx="403.811" cy="42.607" rx="42.607" ry="42.607" transform="matrix(.998 -.071 .071 .998 -2.005 28.733)"/><path d="m225.161 188.862 7.337-18.849 8.693-50.974c-10.658-9.849-26.192-13.783-40.957-8.933-21.677 7.12-33.477 30.465-26.357 52.141 7.027 21.392 29.853 33.151 51.284 26.615z"/><path d="m282.277 58.701c-5.441-.927-10.713.649-14.677 3.874l29.9 12.965c-.569-8.265-6.695-15.384-15.223-16.839z"/><path d="m252.788 122.328-7.985 46.821-32.607 53.023 6.033-15.498-27.013-.21c-15.413-.12-28.004 12.277-28.124 27.69l-.073 9.399-15.9 53.763-64.624 20.624c-9.667 3.085-15.002 13.422-11.917 23.089 2.106 6.599 7.595 11.166 13.939 12.428-2.094 1.971-3.833 4.338-5.081 7.019l-54.643 117.311c-5.355 11.498-.376 25.16 11.122 30.516 11.569 5.389 25.195.302 30.516-11.122l28.568-61.333c-1.768-9.042-7.17-36.666-8.285-42.366-3.789-19.376 10.954-38.023 31.689-37.779l81.581 1.489-80.212 8.872c-13.343 1.476-22.593 14.053-20.014 27.235l19.281 98.594c2.435 12.453 14.502 20.566 26.947 18.132 12.448-2.434 20.566-14.499 18.132-26.947l-14.492-74.103 80.376-8.891-66.546 17.278 12.88 65.339c1.799 9.201-.148 18.262-4.769 25.621 2.01 1.346 4.427 2.133 7.028 2.133 6.986 0 12.649-5.663 12.649-12.649v-78.709h49.783v78.709c0 6.985 5.663 12.649 12.649 12.649 6.985 0 12.649-5.663 12.649-12.649v-91.358c0-5.621-3.67-10.379-8.741-12.027 6.881-4.615 11.025-12.803 10.052-21.608-.009-.081-.023-.16-.033-.24v-159.2l-24.102 28.046 34.469-56.051c1.23-2.001 2.066-4.22 2.461-6.536l7.07-41.454zm-90.493 214.015-35.482 6.024 35.523-11.337z"/></g></svg>