<?xml version="1.0" encoding="iso-8859-1"?>
<!-- Generator: Adobe Illustrator 19.0.0, SVG Export Plug-In . SVG Version: 6.00 Build 0)  -->
<svg version="1.1" id="Capa_1" xmlns="http://www.w3.org/2000/svg" xmlns:xlink="http://www.w3.org/1999/xlink" x="0px" y="0px"
	 viewBox="0 0 512 512" style="enable-background:new 0 0 512 512;" xml:space="preserve">
<g>
	<g>
		<path d="M391.5,135.5c-29.072,0-55.773,10.349-76.611,27.556l-0.003-0.004C297.468,174.793,277.104,181,256,181
			c-20.969,0-41.221-6.133-58.568-17.735l-0.026,0.04C176.524,145.95,149.71,135.5,120.5,135.5C54.056,135.5,0,189.556,0,256
			s54.056,120.5,120.5,120.5c29.039,0,55.71-10.326,76.539-27.497C214.475,337.226,234.859,331,256,331
			c21.142,0,41.526,6.227,58.962,18.003c20.828,17.171,47.5,27.497,76.538,27.497c66.444,0,120.5-54.056,120.5-120.5
			S457.944,135.5,391.5,135.5z M120.5,346.5C70.598,346.5,30,305.902,30,256c0-49.902,40.598-90.5,90.5-90.5
			c49.902,0,90.5,40.598,90.5,90.5S170.402,346.5,120.5,346.5z M280.654,303.246C272.58,301.762,264.336,301,256,301
			s-16.58,0.762-24.654,2.246C237.556,288.731,241,272.761,241,256c0-16.76-3.443-32.729-9.653-47.244
			C239.423,210.241,247.667,211,256,211c8.335,0,16.579-0.761,24.654-2.245C274.443,223.27,271,239.24,271,256
			S274.444,288.731,280.654,303.246z M391.5,346.5c-49.902,0-90.5-40.598-90.5-90.5c0-49.902,40.598-90.5,90.5-90.5
			c49.902,0,90.5,40.598,90.5,90.5S441.402,346.5,391.5,346.5z"/>
	</g>
</g>
<g>
	<g>
		<polygon points="113.359,279.774 113.359,216 94.88,216 94.88,296 152.12,296 152.12,279.774 		"/>
	</g>
</g>
<g>
	<g>
		<path d="M407.275,266.253c2.028-1.127,13.07-7.753,13.07-23.211c0-18.167-15.595-27.042-26.141-27.042h-36.056v80h18.479v-25.802
			h12.056L404.007,296h20.846L407.275,266.253z M393.528,254.085h-16.902v-21.859h16.338c2.103,0,8.563,2.274,8.563,10.816
			C401.527,251.875,395.705,254.085,393.528,254.085z"/>
	</g>
</g>
<g>
</g>
<g>
</g>
<g>
</g>
<g>
</g>
<g>
</g>
<g>
</g>
<g>
</g>
<g>
</g>
<g>
</g>
<g>
</g>
<g>
</g>
<g>
</g>
<g>
</g>
<g>
</g>
<g>
</g>
</svg>
