<svg id="Capa_1" enable-background="new 0 0 512 512" height="512" viewBox="0 0 512 512" width="512" xmlns="http://www.w3.org/2000/svg"><g><path d="m256 270c57.897 0 105-47.103 105-105s-47.103-105-105-105-105 47.103-105 105 47.103 105 105 105zm-15-45c0-8.271 6.729-15 15-15s15 6.729 15 15-6.729 15-15 15-15-6.729-15-15zm15-135c41.355 0 75 33.645 75 75 0 24.484-11.796 46.263-30.001 59.96-.022-24.795-20.199-44.96-44.999-44.96s-44.977 20.165-44.999 44.96c-18.205-13.697-30.001-35.476-30.001-59.96 0-41.355 33.645-75 75-75z"/><path d="m211 120h30v30h-30z"/><path d="m271 120h30v30h-30z"/><path d="m91 165v182c0 90.981 74.02 165 165.001 165 90.98 0 164.999-74.019 164.999-165v-182c0-90.981-74.019-165-165-165s-165 74.019-165 165zm165-135c74.439 0 135 60.561 135 135v182c0 74.439-60.561 135-134.999 135-74.439 0-135.001-60.561-135.001-135v-182c0-74.439 60.561-135 135-135z"/><path d="m271 332h-30v30h-30v30h30v30h30v-30h30v-30h-30z"/></g></svg>